<mxfile host="app.diagrams.net" modified="2023-04-29T20:34:47.928Z" agent="Mozilla/5.0 (Windows NT 10.0; Win64; x64) AppleWebKit/537.36 (KHTML, like Gecko) Chrome/112.0.0.0 Safari/537.36" etag="EpJqxRDtxkS7ZGsK3v1v" version="21.2.3" type="device">
  <diagram name="Page-1" id="XSbCTBbOwJE-prQzmKW3">
    <mxGraphModel dx="1050" dy="541" grid="1" gridSize="10" guides="1" tooltips="1" connect="1" arrows="1" fold="1" page="1" pageScale="1" pageWidth="850" pageHeight="1100" math="0" shadow="0">
      <root>
        <mxCell id="0" />
        <mxCell id="1" parent="0" />
        <mxCell id="U0puOinDc7yOgNiQiMVM-1" value="&lt;font style=&quot;font-size: 11px;&quot;&gt;οθόνη παραγγελίας&lt;/font&gt;" style="shape=umlBoundary;whiteSpace=wrap;html=1;" parent="1" vertex="1">
          <mxGeometry x="220" y="125" width="90" height="70" as="geometry" />
        </mxCell>
        <mxCell id="U0puOinDc7yOgNiQiMVM-2" value="premium" style="ellipse;shape=umlEntity;whiteSpace=wrap;html=1;" parent="1" vertex="1">
          <mxGeometry x="65" y="670" width="80" height="80" as="geometry" />
        </mxCell>
        <mxCell id="U0puOinDc7yOgNiQiMVM-50" style="edgeStyle=orthogonalEdgeStyle;rounded=0;orthogonalLoop=1;jettySize=auto;html=1;" parent="1" source="U0puOinDc7yOgNiQiMVM-44" target="U0puOinDc7yOgNiQiMVM-1" edge="1">
          <mxGeometry relative="1" as="geometry">
            <mxPoint x="150" y="195" as="targetPoint" />
          </mxGeometry>
        </mxCell>
        <mxCell id="U0puOinDc7yOgNiQiMVM-44" value="Actor" style="shape=umlActor;verticalLabelPosition=bottom;verticalAlign=top;html=1;outlineConnect=0;" parent="1" vertex="1">
          <mxGeometry x="32.5" y="130" width="30" height="60" as="geometry" />
        </mxCell>
        <mxCell id="U0puOinDc7yOgNiQiMVM-56" style="edgeStyle=orthogonalEdgeStyle;rounded=0;orthogonalLoop=1;jettySize=auto;html=1;entryX=0;entryY=0.49;entryDx=0;entryDy=0;entryPerimeter=0;" parent="1" source="U0puOinDc7yOgNiQiMVM-52" target="U0puOinDc7yOgNiQiMVM-54" edge="1">
          <mxGeometry relative="1" as="geometry" />
        </mxCell>
        <mxCell id="U0puOinDc7yOgNiQiMVM-52" value="Εμφάνισε" style="ellipse;shape=umlControl;whiteSpace=wrap;html=1;" parent="1" vertex="1">
          <mxGeometry x="390" y="115" width="70" height="80" as="geometry" />
        </mxCell>
        <mxCell id="U0puOinDc7yOgNiQiMVM-54" value="&lt;font style=&quot;font-size: 11px;&quot;&gt;Εξαργύρωση πόντων&lt;/font&gt;" style="shape=umlBoundary;whiteSpace=wrap;html=1;" parent="1" vertex="1">
          <mxGeometry x="670" y="120" width="90" height="70" as="geometry" />
        </mxCell>
        <mxCell id="U0puOinDc7yOgNiQiMVM-73" style="edgeStyle=orthogonalEdgeStyle;rounded=0;orthogonalLoop=1;jettySize=auto;html=1;strokeColor=#82b366;fillColor=#d5e8d4;" parent="1" source="U0puOinDc7yOgNiQiMVM-57" target="U0puOinDc7yOgNiQiMVM-71" edge="1">
          <mxGeometry relative="1" as="geometry" />
        </mxCell>
        <mxCell id="U0puOinDc7yOgNiQiMVM-57" value="Έλεγχος level-πόντων premium" style="ellipse;shape=umlControl;whiteSpace=wrap;html=1;" parent="1" vertex="1">
          <mxGeometry x="422.5" y="320" width="100" height="90" as="geometry" />
        </mxCell>
        <mxCell id="U0puOinDc7yOgNiQiMVM-61" value="Επαρκείς πόντοι" style="text;html=1;strokeColor=none;fillColor=none;align=center;verticalAlign=middle;whiteSpace=wrap;rounded=0;" parent="1" vertex="1">
          <mxGeometry x="350" y="330" width="60" height="30" as="geometry" />
        </mxCell>
        <mxCell id="U0puOinDc7yOgNiQiMVM-69" style="edgeStyle=orthogonalEdgeStyle;rounded=0;orthogonalLoop=1;jettySize=auto;html=1;entryX=0.5;entryY=0;entryDx=0;entryDy=0;" parent="1" source="U0puOinDc7yOgNiQiMVM-67" target="U0puOinDc7yOgNiQiMVM-2" edge="1">
          <mxGeometry relative="1" as="geometry" />
        </mxCell>
        <mxCell id="U0puOinDc7yOgNiQiMVM-67" value="Ανανέωνει τους πόντους μετά την εξαργύρωση πόντνων του χρήστη&lt;br&gt;" style="ellipse;shape=umlControl;whiteSpace=wrap;html=1;" parent="1" vertex="1">
          <mxGeometry x="50" y="485" width="110" height="110" as="geometry" />
        </mxCell>
        <mxCell id="U0puOinDc7yOgNiQiMVM-70" value="Ανεπαρκείς πόντοι" style="text;html=1;strokeColor=#82b366;fillColor=#d5e8d4;align=center;verticalAlign=middle;whiteSpace=wrap;rounded=0;" parent="1" vertex="1">
          <mxGeometry x="610" y="330" width="60" height="30" as="geometry" />
        </mxCell>
        <mxCell id="U0puOinDc7yOgNiQiMVM-88" style="edgeStyle=orthogonalEdgeStyle;rounded=0;orthogonalLoop=1;jettySize=auto;html=1;entryX=0.498;entryY=0.1;entryDx=0;entryDy=0;entryPerimeter=0;strokeColor=#82b366;fillColor=#d5e8d4;" parent="1" source="U0puOinDc7yOgNiQiMVM-71" target="U0puOinDc7yOgNiQiMVM-74" edge="1">
          <mxGeometry relative="1" as="geometry" />
        </mxCell>
        <mxCell id="U0puOinDc7yOgNiQiMVM-71" value="Εμφάνισε" style="ellipse;shape=umlControl;whiteSpace=wrap;html=1;strokeColor=#82b366;fontStyle=0;fillColor=#d5e8d4;" parent="1" vertex="1">
          <mxGeometry x="650" y="460" width="70" height="80" as="geometry" />
        </mxCell>
        <mxCell id="U0puOinDc7yOgNiQiMVM-74" value="Mήνυμα ανεπαρκείς πόντοι δεν επαρκούν για εξαργύρωση&lt;br&gt;" style="ellipse;shape=umlControl;whiteSpace=wrap;html=1;strokeColor=#82b366;fillColor=#d5e8d4;" parent="1" vertex="1">
          <mxGeometry x="620" y="610" width="130" height="110" as="geometry" />
        </mxCell>
        <mxCell id="U0puOinDc7yOgNiQiMVM-76" value="Πελάτης Premium&lt;br&gt;" style="text;html=1;strokeColor=#666666;fillColor=#f5f5f5;align=center;verticalAlign=middle;whiteSpace=wrap;rounded=0;fontColor=#333333;" parent="1" vertex="1">
          <mxGeometry x="5" y="225" width="85" height="35" as="geometry" />
        </mxCell>
        <mxCell id="U0puOinDc7yOgNiQiMVM-81" value="Ολοκλήρωση παραγγελίας" style="ellipse;whiteSpace=wrap;html=1;" parent="1" vertex="1">
          <mxGeometry x="206.25" y="700" width="120" height="80" as="geometry" />
        </mxCell>
        <mxCell id="U0puOinDc7yOgNiQiMVM-90" style="edgeStyle=orthogonalEdgeStyle;rounded=0;orthogonalLoop=1;jettySize=auto;html=1;entryX=1;entryY=0.5;entryDx=0;entryDy=0;strokeColor=#6c8ebf;fillColor=#dae8fc;" parent="1" source="U0puOinDc7yOgNiQiMVM-84" target="U0puOinDc7yOgNiQiMVM-81" edge="1">
          <mxGeometry relative="1" as="geometry" />
        </mxCell>
        <mxCell id="U0puOinDc7yOgNiQiMVM-84" value="Υπολογίζει τη παραγγελία χωρίς την εξαργύρωση πόντων&lt;br&gt;" style="ellipse;shape=umlControl;whiteSpace=wrap;html=1;strokeColor=#6c8ebf;fillColor=#dae8fc;" parent="1" vertex="1">
          <mxGeometry x="397.5" y="500" width="125" height="100" as="geometry" />
        </mxCell>
        <mxCell id="RF0D6jVLFjoPsbKkYkGq-2" value="Eξαργύρωση" style="text;html=1;strokeColor=none;fillColor=none;align=center;verticalAlign=middle;whiteSpace=wrap;rounded=0;" parent="1" vertex="1">
          <mxGeometry x="100" y="165" width="60" height="30" as="geometry" />
        </mxCell>
        <mxCell id="RF0D6jVLFjoPsbKkYkGq-3" value="" style="endArrow=classic;html=1;rounded=0;exitX=0.404;exitY=1.007;exitDx=0;exitDy=0;exitPerimeter=0;entryX=0.95;entryY=0.3;entryDx=0;entryDy=0;entryPerimeter=0;" parent="1" source="U0puOinDc7yOgNiQiMVM-54" target="U0puOinDc7yOgNiQiMVM-57" edge="1">
          <mxGeometry width="50" height="50" relative="1" as="geometry">
            <mxPoint x="360" y="370" as="sourcePoint" />
            <mxPoint x="560" y="290" as="targetPoint" />
          </mxGeometry>
        </mxCell>
        <mxCell id="RF0D6jVLFjoPsbKkYkGq-11" style="edgeStyle=orthogonalEdgeStyle;rounded=0;orthogonalLoop=1;jettySize=auto;html=1;" parent="1" source="RF0D6jVLFjoPsbKkYkGq-4" target="RF0D6jVLFjoPsbKkYkGq-10" edge="1">
          <mxGeometry relative="1" as="geometry" />
        </mxCell>
        <mxCell id="RF0D6jVLFjoPsbKkYkGq-4" value="&lt;font style=&quot;font-size: 11px;&quot;&gt;Επιβεβαίωση εξαργύρωσης πόντων ή όχι&lt;/font&gt;" style="shape=umlBoundary;whiteSpace=wrap;html=1;" parent="1" vertex="1">
          <mxGeometry x="220" y="340" width="90" height="70" as="geometry" />
        </mxCell>
        <mxCell id="RF0D6jVLFjoPsbKkYkGq-6" value="" style="endArrow=classic;html=1;rounded=0;entryX=-0.033;entryY=0.474;entryDx=0;entryDy=0;entryPerimeter=0;" parent="1" source="U0puOinDc7yOgNiQiMVM-44" target="RF0D6jVLFjoPsbKkYkGq-4" edge="1">
          <mxGeometry width="50" height="50" relative="1" as="geometry">
            <mxPoint x="360" y="370" as="sourcePoint" />
            <mxPoint x="410" y="320" as="targetPoint" />
          </mxGeometry>
        </mxCell>
        <mxCell id="RF0D6jVLFjoPsbKkYkGq-8" value="Επιλογή αν επιθυμεί ή όχι την εξαργύρωση πόντων" style="text;html=1;strokeColor=none;fillColor=none;align=center;verticalAlign=middle;whiteSpace=wrap;rounded=0;rotation=45;" parent="1" vertex="1">
          <mxGeometry x="100" y="245" width="140" height="30" as="geometry" />
        </mxCell>
        <mxCell id="RF0D6jVLFjoPsbKkYkGq-15" style="edgeStyle=orthogonalEdgeStyle;rounded=0;orthogonalLoop=1;jettySize=auto;html=1;" parent="1" source="RF0D6jVLFjoPsbKkYkGq-10" target="U0puOinDc7yOgNiQiMVM-67" edge="1">
          <mxGeometry relative="1" as="geometry" />
        </mxCell>
        <mxCell id="RF0D6jVLFjoPsbKkYkGq-16" style="edgeStyle=orthogonalEdgeStyle;rounded=0;orthogonalLoop=1;jettySize=auto;html=1;entryX=0.5;entryY=0;entryDx=0;entryDy=0;" parent="1" source="RF0D6jVLFjoPsbKkYkGq-10" target="U0puOinDc7yOgNiQiMVM-81" edge="1">
          <mxGeometry relative="1" as="geometry" />
        </mxCell>
        <mxCell id="RF0D6jVLFjoPsbKkYkGq-10" value="Υπολογίζει την τελική τιμή με έκπτωση" style="ellipse;shape=umlControl;whiteSpace=wrap;html=1;" parent="1" vertex="1">
          <mxGeometry x="220" y="490" width="92.5" height="100" as="geometry" />
        </mxCell>
        <mxCell id="RF0D6jVLFjoPsbKkYkGq-12" value="Ναι" style="text;html=1;strokeColor=none;fillColor=none;align=center;verticalAlign=middle;whiteSpace=wrap;rounded=0;" parent="1" vertex="1">
          <mxGeometry x="266.25" y="420" width="60" height="30" as="geometry" />
        </mxCell>
        <mxCell id="RF0D6jVLFjoPsbKkYkGq-18" value="" style="endArrow=classic;html=1;rounded=0;entryX=0.248;entryY=0.16;entryDx=0;entryDy=0;entryPerimeter=0;exitX=1;exitY=0.714;exitDx=0;exitDy=0;exitPerimeter=0;fillColor=#dae8fc;strokeColor=#6c8ebf;" parent="1" source="RF0D6jVLFjoPsbKkYkGq-4" target="U0puOinDc7yOgNiQiMVM-84" edge="1">
          <mxGeometry width="50" height="50" relative="1" as="geometry">
            <mxPoint x="520" y="530" as="sourcePoint" />
            <mxPoint x="570" y="480" as="targetPoint" />
          </mxGeometry>
        </mxCell>
        <mxCell id="RF0D6jVLFjoPsbKkYkGq-19" value="Όχι" style="text;html=1;strokeColor=#6c8ebf;fillColor=#dae8fc;align=center;verticalAlign=middle;whiteSpace=wrap;rounded=0;" parent="1" vertex="1">
          <mxGeometry x="380" y="425" width="50" height="20" as="geometry" />
        </mxCell>
        <mxCell id="RF0D6jVLFjoPsbKkYkGq-20" value="" style="endArrow=classic;html=1;rounded=0;entryX=0.992;entryY=0.58;entryDx=0;entryDy=0;entryPerimeter=0;exitX=0.077;exitY=0.273;exitDx=0;exitDy=0;exitPerimeter=0;fillColor=#d5e8d4;strokeColor=#82b366;" parent="1" source="U0puOinDc7yOgNiQiMVM-74" target="U0puOinDc7yOgNiQiMVM-84" edge="1">
          <mxGeometry width="50" height="50" relative="1" as="geometry">
            <mxPoint x="520" y="530" as="sourcePoint" />
            <mxPoint x="570" y="480" as="targetPoint" />
          </mxGeometry>
        </mxCell>
        <mxCell id="sLNhOhzuAUSg7PhpRw1X-1" value="premium" style="ellipse;shape=umlEntity;whiteSpace=wrap;html=1;" vertex="1" parent="1">
          <mxGeometry x="432.5" y="202.5" width="80" height="80" as="geometry" />
        </mxCell>
        <mxCell id="sLNhOhzuAUSg7PhpRw1X-2" value="" style="endArrow=classic;html=1;rounded=0;exitX=-0.005;exitY=0.562;exitDx=0;exitDy=0;exitPerimeter=0;" edge="1" parent="1" source="U0puOinDc7yOgNiQiMVM-57">
          <mxGeometry width="50" height="50" relative="1" as="geometry">
            <mxPoint x="420" y="460" as="sourcePoint" />
            <mxPoint x="310" y="370" as="targetPoint" />
          </mxGeometry>
        </mxCell>
        <mxCell id="sLNhOhzuAUSg7PhpRw1X-5" value="" style="endArrow=classic;html=1;rounded=0;entryX=-0.034;entryY=0.555;entryDx=0;entryDy=0;entryPerimeter=0;exitX=1.009;exitY=0.491;exitDx=0;exitDy=0;exitPerimeter=0;" edge="1" parent="1" source="U0puOinDc7yOgNiQiMVM-1" target="U0puOinDc7yOgNiQiMVM-52">
          <mxGeometry width="50" height="50" relative="1" as="geometry">
            <mxPoint x="420" y="360" as="sourcePoint" />
            <mxPoint x="470" y="310" as="targetPoint" />
          </mxGeometry>
        </mxCell>
        <mxCell id="sLNhOhzuAUSg7PhpRw1X-6" value="" style="endArrow=classic;html=1;rounded=0;entryX=0.5;entryY=1;entryDx=0;entryDy=0;exitX=0.491;exitY=0.127;exitDx=0;exitDy=0;exitPerimeter=0;" edge="1" parent="1" source="U0puOinDc7yOgNiQiMVM-57" target="sLNhOhzuAUSg7PhpRw1X-1">
          <mxGeometry width="50" height="50" relative="1" as="geometry">
            <mxPoint x="420" y="360" as="sourcePoint" />
            <mxPoint x="470" y="310" as="targetPoint" />
          </mxGeometry>
        </mxCell>
      </root>
    </mxGraphModel>
  </diagram>
</mxfile>
